<svg width="192" height="192" viewBox="0 0 192 192" fill="none" xmlns="http://www.w3.org/2000/svg">
<rect width="192" height="192" fill="white"/>
<path d="M102.511 142.02C95.9771 142.115 89.5046 140.746 83.5688 138.013C75.6488 134.275 68.9499 128.369 64.2481 120.981C59.5463 113.592 57.034 105.022 57.0022 96.2644C56.9434 89.796 58.0867 83.3729 60.3739 77.322C62.5042 71.7424 65.7238 66.6425 69.8451 62.3197C73.954 58.0711 78.9061 54.7288 84.3833 52.5076C90.3436 50.1199 96.7158 48.9291 103.136 49.0033C109.029 49.0209 114.864 50.1653 120.326 52.375C125.477 54.3984 130.022 57.7081 133.529 61.9882C133.61 62.0866 133.67 62.2002 133.706 62.3222C133.741 62.4442 133.752 62.5722 133.738 62.6986C133.723 62.8253 133.682 62.9476 133.619 63.0583C133.555 63.169 133.47 63.2657 133.368 63.3426L124.844 69.8209C124.68 69.9438 124.481 70.0103 124.276 70.0103C124.135 70.0119 123.996 69.9822 123.868 69.9232C123.74 69.8642 123.627 69.7775 123.537 69.6693C121.115 66.7562 118.06 64.4337 114.606 62.8785C110.883 61.157 106.831 60.262 102.729 60.255C98.0548 60.2009 93.4256 61.1707 89.1662 63.0964C85.2103 64.9124 81.6753 67.5314 78.7858 70.7869C75.8767 74.1396 73.6273 78.0118 72.156 82.1997C70.5431 86.7126 69.7291 91.472 69.7503 96.2644C69.7269 100.782 70.4896 105.268 72.0045 109.524C73.4433 113.57 75.6493 117.3 78.5017 120.511C81.4041 123.721 84.9552 126.277 88.92 128.012C93.2974 129.904 98.0271 130.843 102.795 130.768C107.437 130.851 112.026 129.767 116.14 127.614C119.74 125.639 122.873 122.913 125.327 119.62C125.416 119.504 125.531 119.411 125.663 119.347C125.794 119.283 125.939 119.25 126.085 119.251C126.29 119.251 126.489 119.317 126.653 119.44L135.243 125.909C135.345 125.986 135.43 126.083 135.494 126.193C135.557 126.304 135.598 126.426 135.613 126.553C135.631 126.68 135.622 126.808 135.586 126.931C135.55 127.054 135.488 127.167 135.404 127.263C134.723 128.097 133.747 129.158 132.563 130.427C130.565 132.392 128.339 134.112 125.933 135.551C122.809 137.433 119.474 138.943 115.998 140.05C111.637 141.425 107.083 142.091 102.511 142.02Z" fill="#141414"/>
</svg>
