<svg width="389" height="65" viewBox="0 0 389 65" fill="none" xmlns="http://www.w3.org/2000/svg">
<path d="M31.626 64.6477C27.0854 64.714 22.5877 63.7628 18.4628 61.8637C12.9591 59.266 8.30404 55.1622 5.03673 50.0277C1.76941 44.8931 0.0235944 38.938 0.00149512 32.8521C-0.0393029 28.3572 0.755186 23.8938 2.34454 19.689C3.82494 15.8116 6.06226 12.2677 8.92611 9.26377C11.7814 6.31137 15.2227 3.98881 19.0288 2.44526C23.1707 0.78601 27.5988 -0.0414556 32.0603 0.0100798C36.1552 0.022304 40.2099 0.817605 44.0059 2.35312C47.5848 3.75918 50.7436 6.05913 53.1806 9.03342C53.2367 9.10176 53.2784 9.18069 53.3032 9.26549C53.3281 9.3503 53.3356 9.43925 53.3254 9.52704C53.315 9.61508 53.2869 9.7001 53.2427 9.77701C53.1986 9.85392 53.1394 9.92112 53.0687 9.97458L47.1453 14.4764C47.0314 14.5618 46.8928 14.608 46.7504 14.608C46.6526 14.6091 46.5558 14.5885 46.467 14.5475C46.3782 14.5065 46.2996 14.4462 46.2371 14.3711C44.5539 12.3467 42.4313 10.7328 40.0306 9.65209C37.4434 8.45577 34.6278 7.83382 31.7773 7.82899C28.5293 7.79136 25.3124 8.4653 22.3525 9.80346C19.6035 11.0654 17.147 12.8854 15.1391 15.1477C13.1175 17.4775 11.5544 20.1683 10.532 23.0785C9.41121 26.2145 8.84551 29.5219 8.86029 32.8521C8.84398 35.9911 9.37402 39.1091 10.4267 42.0663C11.4265 44.878 12.9596 47.4702 14.9417 49.701C16.9585 51.9316 19.4262 53.7083 22.1814 54.9136C25.2233 56.2283 28.51 56.8812 31.8234 56.8288C35.0493 56.8866 38.2381 56.133 41.0968 54.6371C43.5986 53.2648 45.7759 51.3703 47.481 49.0823C47.543 49.0018 47.6228 48.9367 47.7141 48.8922C47.8055 48.8476 47.9059 48.8248 48.0075 48.8256C48.1499 48.8256 48.2885 48.8718 48.4024 48.9573L54.3719 53.4525C54.4426 53.5059 54.5018 53.5731 54.5459 53.65C54.59 53.7269 54.6181 53.812 54.6286 53.9C54.6412 53.9879 54.6349 54.0774 54.6099 54.1626C54.5849 54.2478 54.5419 54.3266 54.4838 54.3936C54.0099 54.9728 53.332 55.7099 52.5093 56.5919C51.1205 57.9576 49.5739 59.1529 47.9022 60.1525C45.7309 61.4607 43.4137 62.5099 40.9981 63.2788C37.9677 64.2349 34.8032 64.6971 31.626 64.6477Z" fill="#141414"/>
<path d="M136.668 63.0788C136.537 63.0795 136.409 63.041 136.3 62.9683C136.191 62.8956 136.106 62.792 136.056 62.6708L130.225 48.29C130.176 48.1676 130.091 48.0626 129.982 47.9886C129.873 47.9147 129.744 47.8753 129.613 47.8754H106.788C106.682 47.8752 106.577 47.8494 106.483 47.8001C106.389 47.7508 106.308 47.6796 106.248 47.5924C106.187 47.5053 106.148 47.4048 106.134 47.2993C106.12 47.1939 106.132 47.0867 106.169 46.9869L108.42 41.0042C108.467 40.8782 108.551 40.7697 108.662 40.6932C108.773 40.6167 108.904 40.576 109.039 40.5764H126.039C126.146 40.5754 126.251 40.5484 126.345 40.4977C126.439 40.4469 126.52 40.374 126.579 40.2852C126.639 40.1964 126.676 40.0944 126.687 39.988C126.699 39.8816 126.684 39.7741 126.644 39.6747L116.068 13.6249C116.018 13.5042 115.934 13.4009 115.825 13.3282C115.717 13.2556 115.589 13.2168 115.459 13.2168C115.328 13.2168 115.201 13.2556 115.092 13.3282C114.984 13.4009 114.9 13.5042 114.85 13.6249L103.944 40.0565L103.747 40.583L100.91 47.5989L100.779 47.882L94.8553 62.6642C94.8065 62.7866 94.7221 62.8916 94.6129 62.9656C94.5038 63.0395 94.375 63.0789 94.2432 63.0788H85.9767C85.8672 63.0793 85.7593 63.0525 85.6628 63.0008C85.5662 62.9491 85.4841 62.8741 85.4239 62.7826C85.3637 62.691 85.3274 62.5859 85.3182 62.4767C85.309 62.3675 85.3273 62.2578 85.3712 62.1574L111.888 1.98206C111.94 1.86659 112.024 1.76854 112.131 1.69966C112.237 1.63079 112.361 1.59401 112.487 1.59375H119.194C119.319 1.59527 119.442 1.63263 119.547 1.70143C119.652 1.77023 119.735 1.8676 119.786 1.98206L145.547 62.1771C145.589 62.2772 145.606 62.3861 145.596 62.4943C145.586 62.6025 145.549 62.7065 145.489 62.7971C145.429 62.8877 145.348 62.962 145.252 63.0135C145.157 63.0649 145.05 63.0919 144.941 63.092L136.668 63.0788Z" fill="#141414"/>
<path d="M279.225 63.0805C274.999 63.0991 270.81 62.3036 266.885 60.7375C263.112 59.2351 259.662 57.0233 256.723 54.2217C253.798 51.3923 251.464 48.0097 249.858 44.2704C248.153 40.2778 247.295 35.975 247.337 31.6338C247.303 27.3337 248.131 23.0705 249.773 19.0959C251.331 15.3381 253.62 11.9267 256.506 9.05896C259.391 6.20743 262.805 3.94515 266.556 2.39841C270.549 0.780204 274.824 -0.0317592 279.133 0.00929505C283.317 -0.0170168 287.465 0.779079 291.342 2.35234C295.039 3.86104 298.416 6.0588 301.293 8.8286C304.143 11.606 306.427 14.9094 308.02 18.5562C309.693 22.407 310.538 26.5665 310.501 30.765C310.5 33.3546 310.193 35.935 309.586 38.4523C308.995 40.9182 308.09 43.2982 306.894 45.534C305.719 47.7171 304.227 49.7134 302.465 51.4575C302.234 51.6878 301.991 51.8984 301.747 52.1156C301.627 52.2214 301.473 52.2799 301.313 52.2802H292.579C292.44 52.2793 292.306 52.2346 292.194 52.1524C292.082 52.0703 291.999 51.955 291.957 51.8229C291.914 51.6908 291.915 51.5486 291.958 51.4168C292.001 51.285 292.085 51.1702 292.197 51.0889C293.332 50.2633 294.384 49.3286 295.337 48.2983C297.369 46.0613 298.948 43.4504 299.983 40.611C301.097 37.5784 301.656 34.3705 301.635 31.1401C301.657 28.0195 301.083 24.9234 299.944 22.0181C298.285 17.799 295.382 14.1844 291.62 11.6546C287.859 9.12472 283.416 7.79935 278.883 7.85453C275.791 7.82499 272.728 8.44614 269.893 9.67763C267.205 10.8492 264.77 12.5324 262.725 14.6336C260.677 16.7507 259.054 19.2421 257.947 21.972C256.78 24.8182 256.188 27.8668 256.203 30.9427C256.181 34.1726 256.739 37.3802 257.848 40.4136C258.889 43.2657 260.469 45.8911 262.501 48.1469C264.511 50.354 266.95 52.1277 269.669 53.3595C271.261 54.0901 274.618 54.7746 279.929 55.4591L280.509 55.538H280.634L296.429 55.775H314.009C314.183 55.775 314.351 55.8443 314.474 55.9677C314.598 56.0912 314.667 56.2586 314.667 56.4331V62.4158C314.667 62.5903 314.598 62.7577 314.474 62.8812C314.351 63.0046 314.183 63.0739 314.009 63.0739L279.225 63.0805Z" fill="#141414"/>
<path d="M367.576 64.6441C363.749 64.657 359.953 63.9493 356.387 62.5578C353.212 61.3545 350.427 59.3062 348.332 56.6344C348.229 56.5009 348.181 56.3329 348.198 56.1651C348.215 55.9973 348.296 55.8425 348.424 55.7327L354.255 50.6846C354.374 50.5827 354.526 50.5266 354.683 50.5267H354.749C354.84 50.5362 354.927 50.5645 355.007 50.6098C355.086 50.6551 355.155 50.7165 355.209 50.7899C356.585 52.7011 358.434 54.2227 360.573 55.2062C362.843 56.2562 365.312 56.804 367.813 56.8121C369.257 56.8018 370.692 56.5801 372.071 56.1539C373.489 55.7228 374.825 55.0552 376.02 54.1794C377.199 53.3162 378.189 52.221 378.929 50.961C379.701 49.6146 380.093 48.0835 380.061 46.5316C380.061 44.1689 379.298 42.3458 377.797 41.1018C376.115 39.759 374.223 38.7027 372.196 37.9756C369.946 37.1331 367.491 36.3105 364.897 35.5404C362.329 34.7881 359.874 33.6922 357.599 32.2825C355.337 30.857 353.423 28.9432 351.998 26.6816C350.497 24.3517 349.74 21.1465 349.74 17.1712C349.852 12.932 351.605 8.9017 354.63 5.9299C356.502 4.12537 358.7 2.69362 361.106 1.71111C364.13 0.51098 367.364 -0.0687247 370.617 0.00648417C373.881 -0.00401294 377.13 0.46386 380.259 1.3952C383.254 2.3455 385.915 4.13379 387.926 6.54857C388.039 6.6792 388.097 6.84903 388.085 7.02141C388.074 7.19379 387.996 7.3549 387.867 7.46999L382.115 12.7352C381.994 12.845 381.837 12.9059 381.674 12.9064H381.615C381.523 12.8985 381.434 12.8717 381.354 12.8275C381.273 12.7833 381.203 12.7227 381.147 12.6497C380.074 11.2648 378.701 10.1399 377.133 9.3589C375.109 8.35473 372.875 7.84923 370.617 7.88463C368.651 7.82847 366.691 8.13869 364.838 8.79947C363.454 9.30702 362.195 10.1061 361.146 11.1425C360.267 12.0124 359.593 13.0668 359.171 14.2293C358.817 15.2049 358.626 16.2322 358.605 17.27C358.605 19.9026 359.343 21.8771 360.863 23.2592C362.503 24.7311 364.405 25.881 366.47 26.6487C368.864 27.558 371.308 28.3315 373.789 28.9654C376.329 29.6158 378.777 30.5843 381.075 31.8481C383.298 33.0788 385.217 34.7926 386.689 36.8633C388.19 38.9694 388.947 41.9048 388.947 45.5905C388.985 48.3466 388.407 51.0765 387.255 53.5805C386.179 55.881 384.624 57.9252 382.694 59.5763C380.694 61.2436 378.393 62.5126 375.915 63.3147C373.225 64.2027 370.409 64.6516 367.576 64.6441Z" fill="#141414"/>
<path d="M182.403 63.0829C182.228 63.0829 182.061 63.0136 181.938 62.8902C181.814 62.7667 181.745 62.5993 181.745 62.4248V2.23628C181.745 2.06173 181.814 1.89432 181.938 1.77089C182.061 1.64747 182.228 1.57813 182.403 1.57812H189.426C189.6 1.57813 189.768 1.64747 189.891 1.77089C190.014 1.89432 190.084 2.06173 190.084 2.23628V54.6388C190.084 54.8133 190.153 54.9807 190.276 55.1042C190.4 55.2276 190.567 55.2969 190.742 55.2969H217.661C217.835 55.2969 218.002 55.3663 218.126 55.4897C218.249 55.6131 218.319 55.7805 218.319 55.9551V62.4577C218.319 62.6322 218.249 62.7996 218.126 62.9231C218.002 63.0465 217.835 63.1158 217.661 63.1158L182.403 63.0829Z" fill="#141414"/>
</svg>
